<svg width="100" height="24" viewBox="0 0 100 24" fill="none" xmlns="http://www.w3.org/2000/svg">
<path d="M8.68961 17.1429C13.4235 17.1429 17.261 13.3053 17.261 8.57144C17.261 8.03494 17.2118 7.50994 17.1175 7.00075C16.6083 6.90645 16.0833 6.85715 15.5468 6.85715C10.8129 6.85715 6.97532 10.6947 6.97532 15.4286C6.97532 15.9651 7.02461 16.4901 7.11891 16.9993C7.62811 17.0936 8.1531 17.1429 8.68961 17.1429Z" fill="#2563EB"/>
<path fill-rule="evenodd" clip-rule="evenodd" d="M7.11891 16.9993C3.13517 16.2615 0.118164 12.7688 0.118164 8.57144C0.118164 3.83757 3.95573 0 8.68961 0C12.887 0 16.3797 3.01701 17.1175 7.00075C16.6083 6.90645 16.0833 6.85715 15.5468 6.85715C10.8129 6.85715 6.97532 10.6947 6.97532 15.4286C6.97532 15.9651 7.02461 16.4901 7.11891 16.9993Z" fill="#2563EB"/>
<path fill-rule="evenodd" clip-rule="evenodd" d="M8.68961 17.1429C13.4235 17.1429 17.261 13.3053 17.261 8.57144C17.261 8.03494 17.2118 7.50994 17.1175 7.00075C21.1012 7.73851 24.1182 11.2312 24.1182 15.4286C24.1182 20.1624 20.2806 24 15.5467 24C11.3494 24 7.85668 20.983 7.11891 16.9993C7.62811 17.0936 8.1531 17.1429 8.68961 17.1429Z" fill="#FFC93E"/>
<path d="M40.6062 14.6749C40.3008 15.6626 39.7662 16.4008 39.0026 16.8895C38.239 17.368 37.348 17.6073 36.3299 17.6073C35.332 17.6073 34.4666 17.3986 33.7335 16.9811C33.0106 16.5637 32.4506 15.968 32.0535 15.1942C31.6666 14.4204 31.4731 13.4938 31.4731 12.4146C31.4731 11.3353 31.6717 10.4087 32.0688 9.63492C32.4659 8.8611 33.0259 8.26547 33.7488 7.84801C34.4717 7.43056 35.3219 7.22183 36.2993 7.22183C37.3277 7.22183 38.2084 7.44074 38.9415 7.87856C39.6848 8.30619 40.1939 8.95783 40.4688 9.83347L38.5597 10.6429C38.3866 10.032 38.1219 9.59929 37.7655 9.34474C37.4091 9.08001 36.951 8.94765 36.391 8.94765C35.556 8.94765 34.8891 9.24801 34.3902 9.84874C33.9015 10.4393 33.6571 11.2946 33.6571 12.4146C33.6571 13.5244 33.8913 14.3797 34.3597 14.9804C34.828 15.5811 35.5051 15.8815 36.391 15.8815C36.9408 15.8815 37.4142 15.7338 37.8113 15.4386C38.2186 15.1433 38.5037 14.6953 38.6666 14.0946L40.6062 14.6749Z" fill="#2563EB"/>
<path d="M43.2426 8.71856C42.3771 8.71856 41.9444 8.34692 41.9444 7.60365C41.9444 6.85019 42.3771 6.47346 43.2426 6.47346C44.108 6.47346 44.5408 6.85019 44.5408 7.60365C44.5408 8.34692 44.108 8.71856 43.2426 8.71856ZM44.2811 9.8182V17.4546H42.1888V9.8182H44.2811Z" fill="#2563EB"/>
<path d="M46.4991 17.4546V9.8182H48.3166L48.454 11.3149C48.6475 10.7957 48.9377 10.3935 49.3246 10.1084C49.7217 9.8131 50.2206 9.66547 50.8213 9.66547C51.1777 9.66547 51.4526 9.72147 51.646 9.83347L51.4017 11.5898C51.2999 11.5593 51.1726 11.5338 51.0199 11.5135C50.8773 11.4829 50.689 11.4677 50.4548 11.4677C50.1391 11.4677 49.8388 11.544 49.5537 11.6967C49.2788 11.8393 49.0497 12.0633 48.8664 12.3687C48.6831 12.664 48.5915 13.0407 48.5915 13.4989V17.4546H46.4991Z" fill="#2563EB"/>
<path d="M56.2601 9.66547C57.2783 9.66547 58.0674 9.88438 58.6274 10.3222C59.1975 10.76 59.5743 11.2895 59.7575 11.9106L57.8026 12.6131C57.599 11.6866 57.095 11.2233 56.2906 11.2233C55.7103 11.2233 55.2572 11.4269 54.9314 11.8342C54.6157 12.2415 54.4579 12.8473 54.4579 13.6517C54.4579 14.4662 54.6208 15.072 54.9466 15.4691C55.2826 15.856 55.7357 16.0495 56.3059 16.0495C57.1917 16.0495 57.7212 15.5964 57.8943 14.6902L59.7881 15.3011C59.615 15.9833 59.2281 16.5382 58.6274 16.9658C58.0368 17.3935 57.2681 17.6073 56.3212 17.6073C55.527 17.6073 54.8295 17.4495 54.2288 17.1338C53.6383 16.8182 53.1801 16.3651 52.8543 15.7746C52.5284 15.184 52.3655 14.4713 52.3655 13.6364C52.3655 12.8015 52.5284 12.0887 52.8543 11.4982C53.1903 10.9077 53.6484 10.4546 54.2288 10.1389C54.8194 9.82329 55.4964 9.66547 56.2601 9.66547Z" fill="#2563EB"/>
<path d="M64.8961 9.66547C65.6597 9.66547 66.3368 9.82329 66.9274 10.1389C67.5179 10.4546 67.9761 10.9077 68.3019 11.4982C68.6379 12.0887 68.8059 12.8015 68.8059 13.6364C68.8059 14.4713 68.6379 15.184 68.3019 15.7746C67.9761 16.3651 67.5179 16.8182 66.9274 17.1338C66.3368 17.4495 65.6597 17.6073 64.8961 17.6073C64.1223 17.6073 63.4401 17.4495 62.8496 17.1338C62.2692 16.8182 61.811 16.3651 61.475 15.7746C61.1492 15.184 60.9863 14.4713 60.9863 13.6364C60.9863 12.8015 61.1492 12.0887 61.475 11.4982C61.811 10.9077 62.2692 10.4546 62.8496 10.1389C63.4401 9.82329 64.1223 9.66547 64.8961 9.66547ZM64.8961 11.2233C64.3259 11.2233 63.8779 11.4269 63.5521 11.8342C63.2365 12.2313 63.0786 12.832 63.0786 13.6364C63.0786 14.4407 63.2365 15.0466 63.5521 15.4538C63.8779 15.8509 64.3259 16.0495 64.8961 16.0495C65.4561 16.0495 65.8939 15.8509 66.2096 15.4538C66.5354 15.0466 66.6983 14.4407 66.6983 13.6364C66.6983 12.832 66.5354 12.2313 66.2096 11.8342C65.8939 11.4269 65.4561 11.2233 64.8961 11.2233Z" fill="#2563EB"/>
<path d="M74.0389 9.66547C74.8025 9.66547 75.4796 9.82329 76.0702 10.1389C76.6607 10.4546 77.1189 10.9077 77.4447 11.4982C77.7807 12.0887 77.9487 12.8015 77.9487 13.6364C77.9487 14.4713 77.7807 15.184 77.4447 15.7746C77.1189 16.3651 76.6607 16.8182 76.0702 17.1338C75.4796 17.4495 74.8025 17.6073 74.0389 17.6073C73.2651 17.6073 72.5829 17.4495 71.9923 17.1338C71.412 16.8182 70.9538 16.3651 70.6178 15.7746C70.292 15.184 70.1291 14.4713 70.1291 13.6364C70.1291 12.8015 70.292 12.0887 70.6178 11.4982C70.9538 10.9077 71.412 10.4546 71.9923 10.1389C72.5829 9.82329 73.2651 9.66547 74.0389 9.66547ZM74.0389 11.2233C73.4687 11.2233 73.0207 11.4269 72.6949 11.8342C72.3792 12.2313 72.2214 12.832 72.2214 13.6364C72.2214 14.4407 72.3792 15.0466 72.6949 15.4538C73.0207 15.8509 73.4687 16.0495 74.0389 16.0495C74.5989 16.0495 75.0367 15.8509 75.3523 15.4538C75.6781 15.0466 75.8411 14.4407 75.8411 13.6364C75.8411 12.832 75.6781 12.2313 75.3523 11.8342C75.0367 11.4269 74.5989 11.2233 74.0389 11.2233Z" fill="#2563EB"/>
<path d="M81.7613 6.47346V15.1026C81.7613 15.4589 81.8224 15.7084 81.9445 15.8509C82.0667 15.9935 82.2704 16.0648 82.5555 16.0648C82.7285 16.0648 82.8711 16.0546 82.9831 16.0342C83.0951 16.0138 83.2376 15.9731 83.4107 15.912L83.2275 17.2866C83.0544 17.3884 82.8355 17.4648 82.5707 17.5157C82.3162 17.5768 82.0616 17.6073 81.8071 17.6073C81.0638 17.6073 80.5191 17.4291 80.1729 17.0728C79.8369 16.7062 79.6689 16.1258 79.6689 15.3317V6.47346H81.7613Z" fill="#2563EB"/>
<path d="M88.1199 17.6073C86.9184 17.6073 85.9562 17.2611 85.2333 16.5688C84.5104 15.8662 84.1489 14.8888 84.1489 13.6364C84.1489 12.8015 84.3119 12.0887 84.6377 11.4982C84.9635 10.9077 85.4166 10.4546 85.997 10.1389C86.5875 9.82329 87.2595 9.66547 88.013 9.66547C88.7868 9.66547 89.4435 9.82329 89.9831 10.1389C90.5228 10.4444 90.9351 10.8669 91.2202 11.4066C91.5053 11.936 91.6479 12.5418 91.6479 13.224C91.6479 13.4277 91.6428 13.6211 91.6326 13.8044C91.6224 13.9877 91.6071 14.1506 91.5868 14.2931H86.1955C86.277 14.8837 86.4806 15.3266 86.8064 15.6218C87.1424 15.9069 87.5751 16.0495 88.1046 16.0495C88.5526 16.0495 88.914 15.9629 89.189 15.7898C89.4639 15.6168 89.6777 15.3775 89.8304 15.072L91.4951 15.7135C91.2508 16.3142 90.8231 16.7826 90.2122 17.1186C89.6013 17.4444 88.9039 17.6073 88.1199 17.6073ZM87.9977 11.208C87.01 11.208 86.4144 11.7527 86.2108 12.8422H89.6471C89.5861 12.3127 89.413 11.9106 89.1279 11.6357C88.853 11.3506 88.4762 11.208 87.9977 11.208Z" fill="#2563EB"/>
<path d="M96.4756 17.6073C95.7018 17.6073 94.9942 17.4698 94.3527 17.1949C93.7214 16.92 93.2072 16.5331 92.8102 16.0342L94.0167 14.8124C94.2611 15.1789 94.5869 15.4793 94.9941 15.7135C95.4014 15.9477 95.8851 16.0648 96.4451 16.0648C96.8421 16.0648 97.1578 16.0088 97.392 15.8968C97.6363 15.7746 97.7585 15.5862 97.7585 15.3317C97.7585 15.1688 97.7025 15.0313 97.5905 14.9193C97.4785 14.7971 97.2545 14.7004 96.9185 14.6291L95.5745 14.3542C94.6887 14.1709 94.0574 13.896 93.6807 13.5295C93.3141 13.1527 93.1309 12.6691 93.1309 12.0786C93.1309 11.6611 93.2531 11.2691 93.4974 10.9026C93.752 10.536 94.1287 10.2407 94.6276 10.0167C95.1265 9.78256 95.7476 9.66547 96.4909 9.66547C98.0385 9.66547 99.1483 10.1389 99.8203 11.0858L98.568 12.3077C98.344 11.9513 98.0487 11.6815 97.6822 11.4982C97.3258 11.3047 96.9491 11.208 96.552 11.208C95.656 11.208 95.208 11.4575 95.208 11.9564C95.208 12.1193 95.2792 12.2618 95.4218 12.384C95.5643 12.496 95.824 12.5927 96.2007 12.6742L97.7585 12.9949C98.512 13.1477 99.0516 13.4073 99.3774 13.7738C99.7033 14.1302 99.8662 14.5629 99.8662 15.072C99.8662 15.8051 99.5709 16.4109 98.9803 16.8895C98.4 17.368 97.5651 17.6073 96.4756 17.6073Z" fill="#2563EB"/>
</svg>
