<svg width="82" height="24" viewBox="0 0 82 24" fill="none" xmlns="http://www.w3.org/2000/svg">
<path d="M8.13359 11.0727C8.58798 9.37715 10.3309 7.63427 12.0264 7.17988L22.5973 4.34701C24.2928 3.89262 25.299 4.89878 24.8446 6.59433L22.0117 17.1652C21.5573 18.8607 19.8144 20.6036 18.1189 21.058L7.54804 23.8909C5.85248 24.3453 4.84632 23.3391 5.30071 21.6436L8.13359 11.0727Z" fill="#9E77ED"/>
<path d="M3.8958 6.83482C4.35019 5.13927 6.09307 3.39639 7.78862 2.942L18.3595 0.109121C20.055 -0.345269 21.0612 0.660893 20.6068 2.35645L17.7739 12.9273C17.3195 14.6229 15.5767 16.3657 13.8811 16.8201L3.31025 19.653C1.6147 20.1074 0.608534 19.1012 1.06293 17.4057L3.8958 6.83482Z" fill="#6941C6"/>
<path d="M34.6668 16.1046H38.303V17.5282H32.9029V6.77439H34.6668V16.1046Z" fill="#101828"/>
<path d="M39.1902 13.2267C39.1902 12.3705 39.3655 11.6123 39.7163 10.9521C40.0773 10.2919 40.5621 9.78132 41.1707 9.42029C41.7896 9.04893 42.4705 8.86326 43.2132 8.86326C43.8837 8.86326 44.4665 8.99736 44.9616 9.26555C45.4671 9.52344 45.8694 9.84837 46.1685 10.2404V9.00251H47.9479V17.5282H46.1685V16.2594C45.8694 16.6617 45.4619 16.9969 44.9461 17.2651C44.4304 17.5333 43.8424 17.6674 43.1822 17.6674C42.4498 17.6674 41.7793 17.4817 41.1707 17.1104C40.5621 16.7287 40.0773 16.2026 39.7163 15.5321C39.3655 14.8513 39.1902 14.0828 39.1902 13.2267ZM46.1685 13.2576C46.1685 12.6696 46.0447 12.159 45.7972 11.7258C45.5599 11.2925 45.2453 10.9624 44.8533 10.7355C44.4613 10.5086 44.0384 10.3951 43.5845 10.3951C43.1306 10.3951 42.7077 10.5086 42.3157 10.7355C41.9237 10.9521 41.604 11.2771 41.3564 11.7103C41.1191 12.1332 41.0005 12.6387 41.0005 13.2267C41.0005 13.8146 41.1191 14.3304 41.3564 14.774C41.604 15.2175 41.9237 15.5579 42.3157 15.7952C42.718 16.0221 43.141 16.1356 43.5845 16.1356C44.0384 16.1356 44.4613 16.0221 44.8533 15.7952C45.2453 15.5682 45.5599 15.2382 45.7972 14.8049C46.0447 14.3614 46.1685 13.8456 46.1685 13.2576Z" fill="#101828"/>
<path d="M57.9394 9.00251L52.7095 21.5357H50.8837L52.6167 17.3889L49.259 9.00251H51.2241L53.6224 15.5012L56.1136 9.00251H57.9394Z" fill="#101828"/>
<path d="M67.0845 13.0565C67.0845 13.3762 67.0638 13.6651 67.0226 13.9229H60.5084C60.56 14.6038 60.8127 15.1505 61.2666 15.5631C61.7205 15.9757 62.2775 16.182 62.9377 16.182C63.8867 16.182 64.5572 15.7849 64.9492 14.9906H66.8524C66.5945 15.7746 66.1251 16.4193 65.4443 16.9247C64.7738 17.4199 63.9383 17.6674 62.9377 17.6674C62.1228 17.6674 61.3904 17.4869 60.7405 17.1259C60.101 16.7545 59.5955 16.2387 59.2242 15.5786C58.8631 14.9081 58.6826 14.1344 58.6826 13.2576C58.6826 12.3808 58.858 11.6123 59.2087 10.9521C59.5697 10.2816 60.07 9.76585 60.7096 9.40481C61.3594 9.04377 62.1021 8.86326 62.9377 8.86326C63.7423 8.86326 64.4592 9.03862 65.0884 9.38934C65.7177 9.74006 66.2077 10.2352 66.5584 10.8748C66.9091 11.504 67.0845 12.2312 67.0845 13.0565ZM65.2432 12.4994C65.2329 11.8496 65.0008 11.3286 64.5469 10.9366C64.093 10.5447 63.5308 10.3487 62.8603 10.3487C62.2517 10.3487 61.7308 10.5447 61.2975 10.9366C60.8643 11.3183 60.6064 11.8392 60.5239 12.4994H65.2432Z" fill="#101828"/>
<path d="M70.5843 10.2404C70.8422 9.80711 71.1826 9.47186 71.6055 9.23461C72.0387 8.98704 72.5494 8.86326 73.1373 8.86326V10.6891H72.6886C71.9975 10.6891 71.4714 10.8644 71.1104 11.2152C70.7596 11.5659 70.5843 12.1745 70.5843 13.041V17.5282H68.8204V9.00251H70.5843V10.2404Z" fill="#101828"/>
<path d="M77.8533 17.6674C77.1829 17.6674 76.5794 17.5488 76.043 17.3115C75.5169 17.064 75.0991 16.7339 74.7897 16.3213C74.4802 15.8983 74.3152 15.429 74.2945 14.9132H76.1204C76.1513 15.2743 76.3215 15.5786 76.631 15.8261C76.9508 16.0634 77.3479 16.182 77.8224 16.182C78.3175 16.182 78.6992 16.0892 78.9674 15.9035C79.2459 15.7075 79.3852 15.4599 79.3852 15.1608C79.3852 14.841 79.2305 14.6038 78.921 14.449C78.6218 14.2943 78.1422 14.1241 77.482 13.9384C76.8424 13.7631 76.3215 13.5929 75.9192 13.4278C75.5169 13.2628 75.1662 13.01 74.8671 12.6696C74.5782 12.3292 74.4338 11.8805 74.4338 11.3235C74.4338 10.8696 74.5679 10.457 74.8361 10.0856C75.1043 9.70396 75.486 9.40481 75.9811 9.18819C76.4866 8.97157 77.0642 8.86326 77.7141 8.86326C78.6837 8.86326 79.4625 9.11082 80.0505 9.60596C80.6488 10.0908 80.9686 10.7561 81.0099 11.602H79.2459C79.215 11.2203 79.0602 10.916 78.7817 10.6891C78.5032 10.4621 78.1267 10.3487 77.6522 10.3487C77.188 10.3487 76.8321 10.4363 76.5846 10.6117C76.337 10.7871 76.2132 11.0192 76.2132 11.308C76.2132 11.5349 76.2957 11.7258 76.4608 11.8805C76.6258 12.0352 76.827 12.159 77.0642 12.2519C77.3015 12.3344 77.6522 12.4427 78.1164 12.5768C78.7353 12.7418 79.2408 12.912 79.6328 13.0874C80.035 13.2524 80.3806 13.5 80.6694 13.8301C80.9583 14.1602 81.1078 14.5986 81.1182 15.1453C81.1182 15.6301 80.9841 16.0634 80.7159 16.4451C80.4477 16.8267 80.066 17.1259 79.5709 17.3425C79.086 17.5591 78.5135 17.6674 77.8533 17.6674Z" fill="#101828"/>
</svg>
